<?xml version="1.0" encoding="UTF-8" standalone="no"?>
<!DOCTYPE svg PUBLIC "-//W3C//DTD SVG 1.1//EN"
 "http://www.w3.org/Graphics/SVG/1.1/DTD/svg11.dtd">
<!-- Generated by graphviz version 2.43.0 (0)
 -->
<!-- Title: MinDFA Pages: 1 -->
<svg width="1214pt" height="405pt"
 viewBox="0.00 0.00 1213.58 405.00" xmlns="http://www.w3.org/2000/svg" xmlns:xlink="http://www.w3.org/1999/xlink">
<g id="graph0" class="graph" transform="scale(1 1) rotate(0) translate(4 401)">
<title>MinDFA</title>
<polygon fill="white" stroke="transparent" points="-4,4 -4,-401 1209.58,-401 1209.58,4 -4,4"/>
<!-- 3 -->
<g id="node1" class="node">
<title>3</title>
<ellipse fill="none" stroke="black" cx="930.18" cy="-255" rx="18" ry="18"/>
<ellipse fill="none" stroke="black" cx="930.18" cy="-255" rx="22" ry="22"/>
<text text-anchor="middle" x="930.18" y="-251.3" font-family="Helvetica,Arial,sans-serif" font-size="14.00">3</text>
</g>
<!-- 5 -->
<g id="node11" class="node">
<title>5</title>
<ellipse fill="none" stroke="black" cx="1108.58" cy="-209" rx="18" ry="18"/>
<text text-anchor="middle" x="1108.58" y="-205.3" font-family="Helvetica,Arial,sans-serif" font-size="14.00">5</text>
</g>
<!-- 3&#45;&gt;5 -->
<g id="edge5" class="edge">
<title>3&#45;&gt;5</title>
<path fill="none" stroke="black" d="M949.99,-245.29C963.12,-238.9 981.22,-230.85 997.98,-226 1025.48,-218.04 1058,-213.59 1080.44,-211.26"/>
<polygon fill="black" stroke="black" points="1080.96,-214.73 1090.58,-210.28 1080.29,-207.76 1080.96,-214.73"/>
<text text-anchor="middle" x="1022.78" y="-229.8" font-family="Times,serif" font-size="14.00">a</text>
</g>
<!-- 6 -->
<g id="node12" class="node">
<title>6</title>
<ellipse fill="none" stroke="black" cx="1187.58" cy="-274" rx="18" ry="18"/>
<text text-anchor="middle" x="1187.58" y="-270.3" font-family="Helvetica,Arial,sans-serif" font-size="14.00">6</text>
</g>
<!-- 3&#45;&gt;6 -->
<g id="edge6" class="edge">
<title>3&#45;&gt;6</title>
<path fill="none" stroke="black" d="M952.31,-254.17C979.99,-253.3 1030.01,-252.51 1072.58,-256 1102.57,-258.46 1136.62,-264.23 1159.63,-268.58"/>
<polygon fill="black" stroke="black" points="1159.19,-272.06 1169.68,-270.52 1160.52,-265.19 1159.19,-272.06"/>
<text text-anchor="middle" x="1069.08" y="-259.8" font-family="Times,serif" font-size="14.00">b</text>
</g>
<!-- 4 -->
<g id="node2" class="node">
<title>4</title>
<ellipse fill="none" stroke="black" cx="241" cy="-332" rx="18" ry="18"/>
<ellipse fill="none" stroke="black" cx="241" cy="-332" rx="22" ry="22"/>
<text text-anchor="middle" x="241" y="-328.3" font-family="Helvetica,Arial,sans-serif" font-size="14.00">4</text>
</g>
<!-- 4&#45;&gt;6 -->
<g id="edge8" class="edge">
<title>4&#45;&gt;6</title>
<path fill="none" stroke="black" d="M262.96,-333.6C279.31,-334.72 302.58,-336 323,-336 323,-336 323,-336 1109.58,-336 1135.24,-336 1157.2,-314.85 1171.02,-297.25"/>
<polygon fill="black" stroke="black" points="1173.99,-299.13 1177.13,-289.01 1168.36,-294.96 1173.99,-299.13"/>
<text text-anchor="middle" x="706.69" y="-339.8" font-family="Times,serif" font-size="14.00">b</text>
</g>
<!-- 7 -->
<g id="node13" class="node">
<title>7</title>
<ellipse fill="none" stroke="black" cx="324" cy="-290" rx="18" ry="18"/>
<text text-anchor="middle" x="324" y="-286.3" font-family="Helvetica,Arial,sans-serif" font-size="14.00">7</text>
</g>
<!-- 4&#45;&gt;7 -->
<g id="edge7" class="edge">
<title>4&#45;&gt;7</title>
<path fill="none" stroke="black" d="M259.45,-319.84C266.04,-315.5 273.71,-310.77 281,-307 286.15,-304.33 291.82,-301.79 297.28,-299.53"/>
<polygon fill="black" stroke="black" points="298.73,-302.72 306.73,-295.78 296.15,-296.21 298.73,-302.72"/>
<text text-anchor="middle" x="284.5" y="-310.8" font-family="Times,serif" font-size="14.00">a</text>
</g>
<!-- 9 -->
<g id="node3" class="node">
<title>9</title>
<ellipse fill="none" stroke="black" cx="486" cy="-181" rx="18" ry="18"/>
<ellipse fill="none" stroke="black" cx="486" cy="-181" rx="22" ry="22"/>
<text text-anchor="middle" x="486" y="-177.3" font-family="Helvetica,Arial,sans-serif" font-size="14.00">9</text>
</g>
<!-- 11 -->
<g id="node4" class="node">
<title>11</title>
<ellipse fill="none" stroke="black" cx="1022.78" cy="-91" rx="20.63" ry="20.63"/>
<ellipse fill="none" stroke="black" cx="1022.78" cy="-91" rx="24.6" ry="24.6"/>
<text text-anchor="middle" x="1022.78" y="-87.3" font-family="Helvetica,Arial,sans-serif" font-size="14.00">11</text>
</g>
<!-- 9&#45;&gt;11 -->
<g id="edge16" class="edge">
<title>9&#45;&gt;11</title>
<path fill="none" stroke="black" d="M487.33,-158.81C489.35,-110.47 501.54,0 570.8,0 570.8,0 570.8,0 931.18,0 965.68,0 991.58,-33.25 1006.67,-59.56"/>
<polygon fill="black" stroke="black" points="1003.69,-61.4 1011.55,-68.51 1009.83,-58.05 1003.69,-61.4"/>
<text text-anchor="middle" x="752.99" y="-3.8" font-family="Times,serif" font-size="14.00">b</text>
</g>
<!-- 10 -->
<g id="node15" class="node">
<title>10</title>
<ellipse fill="none" stroke="black" cx="571.8" cy="-181" rx="20.6" ry="20.6"/>
<text text-anchor="middle" x="571.8" y="-177.3" font-family="Helvetica,Arial,sans-serif" font-size="14.00">10</text>
</g>
<!-- 9&#45;&gt;10 -->
<g id="edge15" class="edge">
<title>9&#45;&gt;10</title>
<path fill="none" stroke="black" d="M508.15,-181C517.96,-181 529.82,-181 540.56,-181"/>
<polygon fill="black" stroke="black" points="540.81,-184.5 550.81,-181 540.81,-177.5 540.81,-184.5"/>
<text text-anchor="middle" x="529.5" y="-184.8" font-family="Times,serif" font-size="14.00">a</text>
</g>
<!-- 11&#45;&gt;11 -->
<g id="edge20" class="edge">
<title>11&#45;&gt;11</title>
<path fill="none" stroke="black" d="M1014.29,-114.33C1013.48,-124.77 1016.31,-133.8 1022.78,-133.8 1026.92,-133.8 1029.57,-130.09 1030.73,-124.69"/>
<polygon fill="black" stroke="black" points="1034.25,-124.5 1031.27,-114.33 1027.26,-124.14 1034.25,-124.5"/>
<text text-anchor="middle" x="1022.78" y="-137.6" font-family="Times,serif" font-size="14.00">b</text>
</g>
<!-- 11&#45;&gt;5 -->
<g id="edge19" class="edge">
<title>11&#45;&gt;5</title>
<path fill="none" stroke="black" d="M1037.81,-110.75C1052.63,-131.62 1075.97,-164.5 1091.52,-186.39"/>
<polygon fill="black" stroke="black" points="1088.82,-188.63 1097.46,-194.76 1094.53,-184.58 1088.82,-188.63"/>
<text text-anchor="middle" x="1069.08" y="-161.8" font-family="Times,serif" font-size="14.00">a</text>
</g>
<!-- 12 -->
<g id="node5" class="node">
<title>12</title>
<ellipse fill="none" stroke="black" cx="660.39" cy="-156" rx="20.63" ry="20.63"/>
<ellipse fill="none" stroke="black" cx="660.39" cy="-156" rx="24.6" ry="24.6"/>
<text text-anchor="middle" x="660.39" y="-152.3" font-family="Helvetica,Arial,sans-serif" font-size="14.00">12</text>
</g>
<!-- 12&#45;&gt;11 -->
<g id="edge22" class="edge">
<title>12&#45;&gt;11</title>
<path fill="none" stroke="black" d="M684.64,-162.04C735.86,-174.11 861.3,-196.89 954.98,-158 973.88,-150.16 990.2,-134.09 1001.98,-119.65"/>
<polygon fill="black" stroke="black" points="1005,-121.46 1008.37,-111.41 999.48,-117.16 1005,-121.46"/>
<text text-anchor="middle" x="841.59" y="-183.8" font-family="Times,serif" font-size="14.00">b</text>
</g>
<!-- 13 -->
<g id="node6" class="node">
<title>13</title>
<ellipse fill="none" stroke="black" cx="752.99" cy="-107" rx="20.63" ry="20.63"/>
<ellipse fill="none" stroke="black" cx="752.99" cy="-107" rx="24.6" ry="24.6"/>
<text text-anchor="middle" x="752.99" y="-103.3" font-family="Helvetica,Arial,sans-serif" font-size="14.00">13</text>
</g>
<!-- 12&#45;&gt;13 -->
<g id="edge21" class="edge">
<title>12&#45;&gt;13</title>
<path fill="none" stroke="black" d="M682.86,-144.39C694.49,-138.1 709.03,-130.23 721.78,-123.34"/>
<polygon fill="black" stroke="black" points="723.54,-126.36 730.67,-118.53 720.21,-120.21 723.54,-126.36"/>
<text text-anchor="middle" x="706.69" y="-136.8" font-family="Times,serif" font-size="14.00">a</text>
</g>
<!-- 13&#45;&gt;11 -->
<g id="edge24" class="edge">
<title>13&#45;&gt;11</title>
<path fill="none" stroke="black" d="M774.8,-95.11C811.25,-75.77 889.07,-41.19 954.98,-57 968.03,-60.13 981.41,-66.26 992.73,-72.46"/>
<polygon fill="black" stroke="black" points="991.29,-75.67 1001.7,-77.62 994.78,-69.6 991.29,-75.67"/>
<text text-anchor="middle" x="883.89" y="-60.8" font-family="Times,serif" font-size="14.00">b</text>
</g>
<!-- 14 -->
<g id="node16" class="node">
<title>14</title>
<ellipse fill="none" stroke="black" cx="841.59" cy="-107" rx="20.6" ry="20.6"/>
<text text-anchor="middle" x="841.59" y="-103.3" font-family="Helvetica,Arial,sans-serif" font-size="14.00">14</text>
</g>
<!-- 13&#45;&gt;14 -->
<g id="edge23" class="edge">
<title>13&#45;&gt;14</title>
<path fill="none" stroke="black" d="M778.11,-107C788.17,-107 799.96,-107 810.57,-107"/>
<polygon fill="black" stroke="black" points="810.68,-110.5 820.68,-107 810.68,-103.5 810.68,-110.5"/>
<text text-anchor="middle" x="799.29" y="-110.8" font-family="Times,serif" font-size="14.00">a</text>
</g>
<!-- 15 -->
<g id="node7" class="node">
<title>15</title>
<ellipse fill="none" stroke="black" cx="930.18" cy="-91" rx="20.63" ry="20.63"/>
<ellipse fill="none" stroke="black" cx="930.18" cy="-91" rx="24.6" ry="24.6"/>
<text text-anchor="middle" x="930.18" y="-87.3" font-family="Helvetica,Arial,sans-serif" font-size="14.00">15</text>
</g>
<!-- 15&#45;&gt;11 -->
<g id="edge28" class="edge">
<title>15&#45;&gt;11</title>
<path fill="none" stroke="black" d="M954.99,-91C965,-91 976.83,-91 987.74,-91"/>
<polygon fill="black" stroke="black" points="987.82,-94.5 997.82,-91 987.82,-87.5 987.82,-94.5"/>
<text text-anchor="middle" x="976.48" y="-94.8" font-family="Times,serif" font-size="14.00">b</text>
</g>
<!-- 15&#45;&gt;15 -->
<g id="edge27" class="edge">
<title>15&#45;&gt;15</title>
<path fill="none" stroke="black" d="M921.69,-114.33C920.88,-124.77 923.71,-133.8 930.18,-133.8 934.33,-133.8 936.98,-130.09 938.14,-124.69"/>
<polygon fill="black" stroke="black" points="941.65,-124.5 938.67,-114.33 934.66,-124.14 941.65,-124.5"/>
<text text-anchor="middle" x="930.18" y="-137.6" font-family="Times,serif" font-size="14.00">a</text>
</g>
<!-- start -->
<g id="node8" class="node">
<title>start</title>
<ellipse fill="black" stroke="black" cx="0" cy="-359" rx="0" ry="0"/>
</g>
<!-- 1 -->
<g id="node9" class="node">
<title>1</title>
<ellipse fill="none" stroke="black" cx="79" cy="-359" rx="18" ry="18"/>
<text text-anchor="middle" x="79" y="-355.3" font-family="Helvetica,Arial,sans-serif" font-size="14.00">1</text>
</g>
<!-- start&#45;&gt;1 -->
<g id="edge1" class="edge">
<title>start&#45;&gt;1</title>
<path fill="none" stroke="black" d="M1.06,-359C2.43,-359 29.04,-359 50.59,-359"/>
<polygon fill="black" stroke="black" points="50.62,-362.5 60.62,-359 50.62,-355.5 50.62,-362.5"/>
<text text-anchor="middle" x="30.5" y="-362.8" font-family="Times,serif" font-size="14.00">start</text>
</g>
<!-- 1&#45;&gt;3 -->
<g id="edge3" class="edge">
<title>1&#45;&gt;3</title>
<path fill="none" stroke="black" d="M95.52,-366.53C110.79,-373.24 134.96,-382 157,-382 157,-382 157,-382 842.59,-382 888.69,-382 912.01,-324.16 922.29,-286.55"/>
<polygon fill="black" stroke="black" points="925.77,-287.1 924.86,-276.54 918.99,-285.36 925.77,-287.1"/>
<text text-anchor="middle" x="486" y="-385.8" font-family="Times,serif" font-size="14.00">b</text>
</g>
<!-- 2 -->
<g id="node10" class="node">
<title>2</title>
<ellipse fill="none" stroke="black" cx="158" cy="-335" rx="18" ry="18"/>
<text text-anchor="middle" x="158" y="-331.3" font-family="Helvetica,Arial,sans-serif" font-size="14.00">2</text>
</g>
<!-- 1&#45;&gt;2 -->
<g id="edge2" class="edge">
<title>1&#45;&gt;2</title>
<path fill="none" stroke="black" d="M96.33,-353.91C106.44,-350.76 119.64,-346.65 131.14,-343.06"/>
<polygon fill="black" stroke="black" points="132.19,-346.4 140.69,-340.08 130.11,-339.72 132.19,-346.4"/>
<text text-anchor="middle" x="118.5" y="-350.8" font-family="Times,serif" font-size="14.00">a</text>
</g>
<!-- 2&#45;&gt;4 -->
<g id="edge4" class="edge">
<title>2&#45;&gt;4</title>
<path fill="none" stroke="black" d="M176.18,-334.36C185.61,-334.01 197.6,-333.57 208.64,-333.16"/>
<polygon fill="black" stroke="black" points="208.95,-336.65 218.81,-332.78 208.69,-329.66 208.95,-336.65"/>
<text text-anchor="middle" x="197.5" y="-336.8" font-family="Times,serif" font-size="14.00">a</text>
</g>
<!-- 5&#45;&gt;6 -->
<g id="edge9" class="edge">
<title>5&#45;&gt;6</title>
<path fill="none" stroke="black" d="M1126.24,-213.38C1134.44,-216.09 1144.14,-220.19 1151.58,-226 1159.91,-232.5 1167.17,-241.48 1172.89,-249.92"/>
<polygon fill="black" stroke="black" points="1169.96,-251.83 1178.28,-258.39 1175.87,-248.07 1169.96,-251.83"/>
<text text-anchor="middle" x="1148.08" y="-229.8" font-family="Times,serif" font-size="14.00">a</text>
</g>
<!-- 6&#45;&gt;3 -->
<g id="edge10" class="edge">
<title>6&#45;&gt;3</title>
<path fill="none" stroke="black" d="M1169.54,-276.93C1163.85,-277.77 1157.46,-278.58 1151.58,-279 1148.47,-279.22 1147.69,-279.11 1144.58,-279 1068.17,-276.33 1048.27,-280.29 972.98,-267 969.19,-266.33 965.25,-265.45 961.37,-264.47"/>
<polygon fill="black" stroke="black" points="961.96,-261.01 951.39,-261.73 960.1,-267.76 961.96,-261.01"/>
<text text-anchor="middle" x="1069.08" y="-280.8" font-family="Times,serif" font-size="14.00">b</text>
</g>
<!-- 7&#45;&gt;3 -->
<g id="edge12" class="edge">
<title>7&#45;&gt;3</title>
<path fill="none" stroke="black" d="M342.07,-292.8C357.64,-295.1 381.3,-298 402,-298 402,-298 402,-298 842.59,-298 865.11,-298 887.8,-286.19 904.31,-274.95"/>
<polygon fill="black" stroke="black" points="906.73,-277.52 912.8,-268.84 902.64,-271.84 906.73,-277.52"/>
<text text-anchor="middle" x="614.1" y="-301.8" font-family="Times,serif" font-size="14.00">b</text>
</g>
<!-- 8 -->
<g id="node14" class="node">
<title>8</title>
<ellipse fill="none" stroke="black" cx="403" cy="-252" rx="18" ry="18"/>
<text text-anchor="middle" x="403" y="-248.3" font-family="Helvetica,Arial,sans-serif" font-size="14.00">8</text>
</g>
<!-- 7&#45;&gt;8 -->
<g id="edge11" class="edge">
<title>7&#45;&gt;8</title>
<path fill="none" stroke="black" d="M339.7,-280.48C345.85,-276.69 353.15,-272.41 360,-269 365.19,-266.41 370.88,-263.9 376.34,-261.64"/>
<polygon fill="black" stroke="black" points="377.79,-264.84 385.79,-257.88 375.2,-258.33 377.79,-264.84"/>
<text text-anchor="middle" x="363.5" y="-272.8" font-family="Times,serif" font-size="14.00">a</text>
</g>
<!-- 8&#45;&gt;3 -->
<g id="edge14" class="edge">
<title>8&#45;&gt;3</title>
<path fill="none" stroke="black" d="M421.06,-253C437.45,-253.87 462.91,-255 485,-255 485,-255 485,-255 842.59,-255 860.84,-255 881.26,-255 897.68,-255"/>
<polygon fill="black" stroke="black" points="897.83,-258.5 907.83,-255 897.83,-251.5 897.83,-258.5"/>
<text text-anchor="middle" x="660.39" y="-258.8" font-family="Times,serif" font-size="14.00">b</text>
</g>
<!-- 8&#45;&gt;9 -->
<g id="edge13" class="edge">
<title>8&#45;&gt;9</title>
<path fill="none" stroke="black" d="M417.01,-240.59C428.94,-230.14 446.88,-214.41 461.34,-201.74"/>
<polygon fill="black" stroke="black" points="463.74,-204.29 468.95,-195.07 459.12,-199.03 463.74,-204.29"/>
<text text-anchor="middle" x="442.5" y="-224.8" font-family="Times,serif" font-size="14.00">a</text>
</g>
<!-- 10&#45;&gt;3 -->
<g id="edge18" class="edge">
<title>10&#45;&gt;3</title>
<path fill="none" stroke="black" d="M592.4,-185.24C598.25,-186.48 604.68,-187.82 610.6,-189 733.34,-213.52 766.25,-209.49 887.39,-241 891.35,-242.03 895.49,-243.25 899.56,-244.52"/>
<polygon fill="black" stroke="black" points="898.77,-247.95 909.37,-247.74 900.96,-241.3 898.77,-247.95"/>
<text text-anchor="middle" x="752.99" y="-220.8" font-family="Times,serif" font-size="14.00">b</text>
</g>
<!-- 10&#45;&gt;12 -->
<g id="edge17" class="edge">
<title>10&#45;&gt;12</title>
<path fill="none" stroke="black" d="M592.02,-175.45C602.11,-172.54 614.77,-168.88 626.38,-165.53"/>
<polygon fill="black" stroke="black" points="627.59,-168.82 636.23,-162.69 625.65,-162.1 627.59,-168.82"/>
<text text-anchor="middle" x="614.1" y="-173.8" font-family="Times,serif" font-size="14.00">a</text>
</g>
<!-- 14&#45;&gt;3 -->
<g id="edge26" class="edge">
<title>14&#45;&gt;3</title>
<path fill="none" stroke="black" d="M852.94,-124.49C862.04,-139.88 875.63,-162.91 887.39,-183 895.98,-197.7 905.52,-214.12 913.31,-227.56"/>
<polygon fill="black" stroke="black" points="910.35,-229.43 918.39,-236.33 916.41,-225.93 910.35,-229.43"/>
<text text-anchor="middle" x="883.89" y="-186.8" font-family="Times,serif" font-size="14.00">b</text>
</g>
<!-- 14&#45;&gt;15 -->
<g id="edge25" class="edge">
<title>14&#45;&gt;15</title>
<path fill="none" stroke="black" d="M862.24,-103.37C872.09,-101.55 884.31,-99.29 895.6,-97.21"/>
<polygon fill="black" stroke="black" points="896.41,-100.61 905.61,-95.36 895.14,-93.73 896.41,-100.61"/>
<text text-anchor="middle" x="883.89" y="-103.8" font-family="Times,serif" font-size="14.00">a</text>
</g>
</g>
</svg>
