<?xml version="1.0" encoding="UTF-8" standalone="no"?>
<!DOCTYPE svg PUBLIC "-//W3C//DTD SVG 1.1//EN"
 "http://www.w3.org/Graphics/SVG/1.1/DTD/svg11.dtd">
<!-- Generated by graphviz version 2.43.0 (0)
 -->
<!-- Title: finite_state_machine Pages: 1 -->
<svg width="436pt" height="241pt"
 viewBox="0.00 0.00 436.00 240.99" xmlns="http://www.w3.org/2000/svg" xmlns:xlink="http://www.w3.org/1999/xlink">
<g id="graph0" class="graph" transform="scale(1 1) rotate(0) translate(4 236.99)">
<title>finite_state_machine</title>
<polygon fill="white" stroke="transparent" points="-4,4 -4,-236.99 432,-236.99 432,4 -4,4"/>
<!-- 6 -->
<g id="node1" class="node">
<title>6</title>
<ellipse fill="none" stroke="black" cx="246" cy="-188.99" rx="18" ry="18"/>
<ellipse fill="none" stroke="black" cx="246" cy="-188.99" rx="22" ry="22"/>
<text text-anchor="middle" x="246" y="-185.29" font-family="Helvetica,Arial,sans-serif" font-size="14.00">6</text>
</g>
<!-- 7 -->
<g id="node9" class="node">
<title>7</title>
<ellipse fill="none" stroke="black" cx="330" cy="-188.99" rx="18" ry="18"/>
<text text-anchor="middle" x="330" y="-185.29" font-family="Helvetica,Arial,sans-serif" font-size="14.00">7</text>
</g>
<!-- 6&#45;&gt;7 -->
<g id="edge11" class="edge">
<title>6&#45;&gt;7</title>
<path fill="none" stroke="black" d="M268.12,-188.99C278.3,-188.99 290.63,-188.99 301.53,-188.99"/>
<polygon fill="black" stroke="black" points="301.82,-192.49 311.82,-188.99 301.82,-185.49 301.82,-192.49"/>
<text text-anchor="middle" x="290" y="-192.79" font-family="Helvetica,Arial,sans-serif" font-size="14.00">a</text>
</g>
<!-- 8 -->
<g id="node10" class="node">
<title>8</title>
<ellipse fill="none" stroke="black" cx="410" cy="-188.99" rx="18" ry="18"/>
<text text-anchor="middle" x="410" y="-185.29" font-family="Helvetica,Arial,sans-serif" font-size="14.00">8</text>
</g>
<!-- 6&#45;&gt;8 -->
<g id="edge12" class="edge">
<title>6&#45;&gt;8</title>
<path fill="none" stroke="black" d="M263.04,-174.85C275.45,-164.9 293.57,-152.43 312,-146.99 327.35,-142.47 332.72,-142.24 348,-146.99 362.87,-151.62 377.33,-161.27 388.43,-170.15"/>
<polygon fill="black" stroke="black" points="386.31,-172.95 396.22,-176.7 390.82,-167.59 386.31,-172.95"/>
<text text-anchor="middle" x="330" y="-150.79" font-family="Helvetica,Arial,sans-serif" font-size="14.00">b</text>
</g>
<!-- start -->
<g id="node2" class="node">
<title>start</title>
<ellipse fill="black" stroke="black" cx="0" cy="-91.99" rx="0" ry="0"/>
</g>
<!-- 0 -->
<g id="node3" class="node">
<title>0</title>
<ellipse fill="none" stroke="black" cx="82" cy="-91.99" rx="18" ry="18"/>
<text text-anchor="middle" x="82" y="-88.29" font-family="Helvetica,Arial,sans-serif" font-size="14.00">0</text>
</g>
<!-- start&#45;&gt;0 -->
<g id="edge1" class="edge">
<title>start&#45;&gt;0</title>
<path fill="none" stroke="black" d="M1.06,-91.99C2.51,-91.99 31.02,-91.99 53.59,-91.99"/>
<polygon fill="black" stroke="black" points="53.73,-95.49 63.73,-91.99 53.73,-88.49 53.73,-95.49"/>
<text text-anchor="middle" x="32" y="-95.79" font-family="Helvetica,Arial,sans-serif" font-size="14.00">start</text>
</g>
<!-- 0&#45;&gt;6 -->
<g id="edge5" class="edge">
<title>0&#45;&gt;6</title>
<path fill="none" stroke="black" d="M98.28,-100.3C117.52,-110.84 151.52,-129.74 180,-146.99 192.91,-154.82 207.01,-163.86 218.77,-171.55"/>
<polygon fill="black" stroke="black" points="216.96,-174.56 227.24,-177.13 220.81,-168.71 216.96,-174.56"/>
<text text-anchor="middle" x="162" y="-150.79" font-family="Helvetica,Arial,sans-serif" font-size="14.00">b</text>
</g>
<!-- 1 -->
<g id="node4" class="node">
<title>1</title>
<ellipse fill="none" stroke="black" cx="162" cy="-43.99" rx="18" ry="18"/>
<text text-anchor="middle" x="162" y="-40.29" font-family="Helvetica,Arial,sans-serif" font-size="14.00">1</text>
</g>
<!-- 0&#45;&gt;1 -->
<g id="edge2" class="edge">
<title>0&#45;&gt;1</title>
<path fill="none" stroke="black" d="M95.64,-80.07C102.03,-74.44 110.08,-67.89 118,-62.99 123.42,-59.64 129.55,-56.56 135.43,-53.9"/>
<polygon fill="black" stroke="black" points="137.12,-56.99 144.95,-49.86 134.38,-50.55 137.12,-56.99"/>
<text text-anchor="middle" x="122" y="-66.79" font-family="Helvetica,Arial,sans-serif" font-size="14.00">a</text>
</g>
<!-- 3 -->
<g id="node5" class="node">
<title>3</title>
<ellipse fill="none" stroke="black" cx="330" cy="-37.99" rx="18" ry="18"/>
<text text-anchor="middle" x="330" y="-34.29" font-family="Helvetica,Arial,sans-serif" font-size="14.00">3</text>
</g>
<!-- 0&#45;&gt;3 -->
<g id="edge3" class="edge">
<title>0&#45;&gt;3</title>
<path fill="none" stroke="black" d="M90.81,-76.13C100.55,-58.27 119.01,-30.05 144,-16.99 192.9,8.55 214.02,0.42 268,-10.99 280.79,-13.7 294.17,-19.27 305.13,-24.65"/>
<polygon fill="black" stroke="black" points="303.56,-27.79 314.05,-29.26 306.77,-21.57 303.56,-27.79"/>
<text text-anchor="middle" x="202" y="-4.79" font-family="Helvetica,Arial,sans-serif" font-size="14.00">a</text>
</g>
<!-- 5 -->
<g id="node6" class="node">
<title>5</title>
<ellipse fill="none" stroke="black" cx="162" cy="-188.99" rx="18" ry="18"/>
<text text-anchor="middle" x="162" y="-185.29" font-family="Helvetica,Arial,sans-serif" font-size="14.00">5</text>
</g>
<!-- 0&#45;&gt;5 -->
<g id="edge4" class="edge">
<title>0&#45;&gt;5</title>
<path fill="none" stroke="black" d="M90.46,-107.95C96.8,-120.61 106.66,-138.37 118,-151.99 124.07,-159.28 131.66,-166.33 138.76,-172.27"/>
<polygon fill="black" stroke="black" points="136.78,-175.17 146.76,-178.7 141.16,-169.71 136.78,-175.17"/>
<text text-anchor="middle" x="122" y="-162.79" font-family="Helvetica,Arial,sans-serif" font-size="14.00">a</text>
</g>
<!-- 2 -->
<g id="node7" class="node">
<title>2</title>
<ellipse fill="none" stroke="black" cx="246" cy="-37.99" rx="18" ry="18"/>
<text text-anchor="middle" x="246" y="-34.29" font-family="Helvetica,Arial,sans-serif" font-size="14.00">2</text>
</g>
<!-- 1&#45;&gt;2 -->
<g id="edge6" class="edge">
<title>1&#45;&gt;2</title>
<path fill="none" stroke="black" d="M179.99,-42.75C190.88,-41.95 205.25,-40.9 217.71,-39.99"/>
<polygon fill="black" stroke="black" points="218.31,-43.46 228.03,-39.24 217.8,-36.47 218.31,-43.46"/>
<text text-anchor="middle" x="202" y="-45.79" font-family="Helvetica,Arial,sans-serif" font-size="14.00">a</text>
</g>
<!-- 4 -->
<g id="node8" class="node">
<title>4</title>
<ellipse fill="none" stroke="black" cx="410" cy="-76.99" rx="18" ry="18"/>
<text text-anchor="middle" x="410" y="-73.29" font-family="Helvetica,Arial,sans-serif" font-size="14.00">4</text>
</g>
<!-- 3&#45;&gt;4 -->
<g id="edge8" class="edge">
<title>3&#45;&gt;4</title>
<path fill="none" stroke="black" d="M346.41,-45.7C357.31,-51.15 372.14,-58.56 384.63,-64.81"/>
<polygon fill="black" stroke="black" points="383.11,-67.96 393.62,-69.3 386.24,-61.7 383.11,-67.96"/>
<text text-anchor="middle" x="370" y="-62.79" font-family="Helvetica,Arial,sans-serif" font-size="14.00">a</text>
</g>
<!-- 5&#45;&gt;6 -->
<g id="edge10" class="edge">
<title>5&#45;&gt;6</title>
<path fill="none" stroke="black" d="M180.39,-188.99C190.11,-188.99 202.51,-188.99 213.85,-188.99"/>
<polygon fill="black" stroke="black" points="213.85,-192.49 223.85,-188.99 213.85,-185.49 213.85,-192.49"/>
<text text-anchor="middle" x="202" y="-192.79" font-family="Helvetica,Arial,sans-serif" font-size="14.00">a</text>
</g>
<!-- 2&#45;&gt;3 -->
<g id="edge7" class="edge">
<title>2&#45;&gt;3</title>
<path fill="none" stroke="black" d="M264.39,-37.99C275.23,-37.99 289.4,-37.99 301.71,-37.99"/>
<polygon fill="black" stroke="black" points="301.92,-41.49 311.92,-37.99 301.92,-34.49 301.92,-41.49"/>
<text text-anchor="middle" x="290" y="-41.79" font-family="Helvetica,Arial,sans-serif" font-size="14.00">a</text>
</g>
<!-- 4&#45;&gt;0 -->
<g id="edge9" class="edge">
<title>4&#45;&gt;0</title>
<path fill="none" stroke="black" d="M392.44,-82.07C376.77,-86.42 352.51,-91.99 331,-91.99 161,-91.99 161,-91.99 161,-91.99 144.11,-91.99 125.16,-91.99 110.17,-91.99"/>
<polygon fill="black" stroke="black" points="110.04,-88.49 100.04,-91.99 110.04,-95.49 110.04,-88.49"/>
<text text-anchor="middle" x="246" y="-95.79" font-family="Helvetica,Arial,sans-serif" font-size="14.00">a</text>
</g>
<!-- 7&#45;&gt;8 -->
<g id="edge13" class="edge">
<title>7&#45;&gt;8</title>
<path fill="none" stroke="black" d="M348.31,-188.99C358.11,-188.99 370.58,-188.99 381.67,-188.99"/>
<polygon fill="black" stroke="black" points="381.74,-192.49 391.74,-188.99 381.74,-185.49 381.74,-192.49"/>
<text text-anchor="middle" x="370" y="-192.79" font-family="Helvetica,Arial,sans-serif" font-size="14.00">a</text>
</g>
<!-- 8&#45;&gt;6 -->
<g id="edge14" class="edge">
<title>8&#45;&gt;6</title>
<path fill="none" stroke="black" d="M394.15,-198.27C382.21,-205.05 364.72,-213.48 348,-215.99 320.52,-220.13 311.84,-218.19 286,-207.99 282.43,-206.58 278.73,-204.98 275.1,-203.32"/>
<polygon fill="black" stroke="black" points="276.31,-200.02 265.78,-198.87 273.3,-206.34 276.31,-200.02"/>
<text text-anchor="middle" x="330" y="-221.79" font-family="Helvetica,Arial,sans-serif" font-size="14.00">b</text>
</g>
</g>
</svg>
