<?xml version="1.0" encoding="UTF-8" standalone="no"?>
<!DOCTYPE svg PUBLIC "-//W3C//DTD SVG 1.1//EN"
 "http://www.w3.org/Graphics/SVG/1.1/DTD/svg11.dtd">
<!-- Generated by graphviz version 2.43.0 (0)
 -->
<!-- Title: %3 Pages: 1 -->
<svg width="649pt" height="469pt"
 viewBox="0.00 0.00 649.00 469.00" xmlns="http://www.w3.org/2000/svg" xmlns:xlink="http://www.w3.org/1999/xlink">
<g id="graph0" class="graph" transform="scale(1 1) rotate(0) translate(4 465)">
<title>%3</title>
<polygon fill="white" stroke="transparent" points="-4,4 -4,-465 645,-465 645,4 -4,4"/>
<!-- 0 -->
<g id="node1" class="node">
<title>0</title>
<ellipse fill="none" stroke="black" cx="163" cy="-230" rx="18" ry="18"/>
<text text-anchor="middle" x="163" y="-226.9" font-family="Times,serif" font-size="12.00">0</text>
</g>
<!-- 1 -->
<g id="node2" class="node">
<title>1</title>
<ellipse fill="none" stroke="black" cx="276" cy="-230" rx="18" ry="18"/>
<text text-anchor="middle" x="276" y="-226.9" font-family="Times,serif" font-size="12.00">1</text>
</g>
<!-- 0&#45;&gt;1 -->
<g id="edge2" class="edge">
<title>0&#45;&gt;1</title>
<path fill="none" stroke="black" d="M181.34,-230C199.1,-230 226.96,-230 247.68,-230"/>
<polygon fill="black" stroke="black" points="247.78,-233.5 257.78,-230 247.78,-226.5 247.78,-233.5"/>
<text text-anchor="middle" x="219.5" y="-233" font-family="Times,serif" font-size="10.00">a</text>
</g>
<!-- 3 -->
<g id="node4" class="node">
<title>3</title>
<ellipse fill="none" stroke="black" cx="510" cy="-344" rx="18" ry="18"/>
<text text-anchor="middle" x="510" y="-340.9" font-family="Times,serif" font-size="12.00">3</text>
</g>
<!-- 0&#45;&gt;3 -->
<g id="edge13" class="edge">
<title>0&#45;&gt;3</title>
<path fill="none" stroke="black" d="M178.61,-239.1C196.52,-249.67 228.19,-266.51 258,-273 273.63,-276.41 278,-273.22 294,-273 310,-272.78 314,-272.22 330,-272 368.52,-271.47 379.07,-275.09 415,-289 441.06,-299.09 468.37,-315.86 486.79,-328.24"/>
<polygon fill="black" stroke="black" points="484.85,-331.15 495.08,-333.91 488.8,-325.38 484.85,-331.15"/>
<text text-anchor="middle" x="332.5" y="-275" font-family="Times,serif" font-size="10.00">a</text>
</g>
<!-- 5 -->
<g id="node6" class="node">
<title>5</title>
<ellipse fill="none" stroke="black" cx="393" cy="-136" rx="18" ry="18"/>
<ellipse fill="none" stroke="black" cx="393" cy="-136" rx="22" ry="22"/>
<text text-anchor="middle" x="393" y="-132.9" font-family="Times,serif" font-size="12.00">5</text>
</g>
<!-- 0&#45;&gt;5 -->
<g id="edge7" class="edge">
<title>0&#45;&gt;5</title>
<path fill="none" stroke="black" d="M178.43,-220.3C196.42,-208.53 228.43,-188.7 258,-176 292.22,-161.3 333.54,-149.85 361.17,-143.04"/>
<polygon fill="black" stroke="black" points="362.15,-146.41 371.05,-140.66 360.5,-139.6 362.15,-146.41"/>
<text text-anchor="middle" x="276" y="-179" font-family="Times,serif" font-size="10.00">b</text>
</g>
<!-- 2 -->
<g id="node3" class="node">
<title>2</title>
<ellipse fill="none" stroke="black" cx="393" cy="-332" rx="18" ry="18"/>
<text text-anchor="middle" x="393" y="-328.9" font-family="Times,serif" font-size="12.00">2</text>
</g>
<!-- 1&#45;&gt;2 -->
<g id="edge3" class="edge">
<title>1&#45;&gt;2</title>
<path fill="none" stroke="black" d="M288.67,-243.23C299.07,-254.73 314.93,-271.61 330,-285 342.51,-296.12 357.44,-307.48 369.51,-316.25"/>
<polygon fill="black" stroke="black" points="367.56,-319.16 377.72,-322.14 371.63,-313.47 367.56,-319.16"/>
<text text-anchor="middle" x="332.5" y="-292" font-family="Times,serif" font-size="10.00">a</text>
</g>
<!-- 1&#45;&gt;5 -->
<g id="edge8" class="edge">
<title>1&#45;&gt;5</title>
<path fill="none" stroke="black" d="M290.64,-218.85C309.59,-203.36 344.18,-175.09 367.62,-155.93"/>
<polygon fill="black" stroke="black" points="369.88,-158.6 375.4,-149.56 365.45,-153.18 369.88,-158.6"/>
<text text-anchor="middle" x="332.5" y="-189" font-family="Times,serif" font-size="10.00">a</text>
</g>
<!-- 2&#45;&gt;3 -->
<g id="edge4" class="edge">
<title>2&#45;&gt;3</title>
<path fill="none" stroke="black" d="M410.97,-333.77C429.65,-335.72 459.96,-338.88 481.93,-341.18"/>
<polygon fill="black" stroke="black" points="481.65,-344.67 491.96,-342.22 482.38,-337.7 481.65,-344.67"/>
<text text-anchor="middle" x="453.5" y="-341" font-family="Times,serif" font-size="10.00">a</text>
</g>
<!-- 4 -->
<g id="node5" class="node">
<title>4</title>
<ellipse fill="none" stroke="black" cx="623" cy="-414" rx="18" ry="18"/>
<text text-anchor="middle" x="623" y="-410.9" font-family="Times,serif" font-size="12.00">4</text>
</g>
<!-- 3&#45;&gt;4 -->
<g id="edge5" class="edge">
<title>3&#45;&gt;4</title>
<path fill="none" stroke="black" d="M525.51,-353.15C544.21,-364.94 576.93,-385.58 599.02,-399.51"/>
<polygon fill="black" stroke="black" points="597.16,-402.47 607.49,-404.85 600.89,-396.55 597.16,-402.47"/>
<text text-anchor="middle" x="566.5" y="-382" font-family="Times,serif" font-size="10.00">a</text>
</g>
<!-- 4&#45;&gt;0 -->
<g id="edge6" class="edge">
<title>4&#45;&gt;0</title>
<path fill="none" stroke="black" d="M606.7,-422.35C585.75,-432.98 546.66,-450 511,-450 275,-450 275,-450 275,-450 190.02,-450 170.09,-317.55 165.42,-258.19"/>
<polygon fill="black" stroke="black" points="168.9,-257.74 164.72,-248 161.92,-258.22 168.9,-257.74"/>
<text text-anchor="middle" x="393" y="-453" font-family="Times,serif" font-size="10.00">a</text>
</g>
<!-- 6 -->
<g id="node7" class="node">
<title>6</title>
<ellipse fill="none" stroke="black" cx="510" cy="-18" rx="18" ry="18"/>
<text text-anchor="middle" x="510" y="-14.9" font-family="Times,serif" font-size="12.00">6</text>
</g>
<!-- 5&#45;&gt;6 -->
<g id="edge9" class="edge">
<title>5&#45;&gt;6</title>
<path fill="none" stroke="black" d="M398.74,-114.69C405.62,-89.17 420.96,-47.22 451,-26 459.81,-19.78 471.29,-17.34 481.7,-16.62"/>
<polygon fill="black" stroke="black" points="482.09,-20.11 492.01,-16.4 481.94,-13.11 482.09,-20.11"/>
<text text-anchor="middle" x="453.5" y="-29" font-family="Times,serif" font-size="10.00">a</text>
</g>
<!-- 7 -->
<g id="node8" class="node">
<title>7</title>
<ellipse fill="none" stroke="black" cx="623" cy="-136" rx="18" ry="18"/>
<text text-anchor="middle" x="623" y="-132.9" font-family="Times,serif" font-size="12.00">7</text>
</g>
<!-- 5&#45;&gt;7 -->
<g id="edge12" class="edge">
<title>5&#45;&gt;7</title>
<path fill="none" stroke="black" d="M410.11,-150.52C420.84,-159.19 435.75,-169.38 451,-174 501.19,-189.2 519.07,-190.05 569,-174 581.05,-170.13 592.68,-162.39 601.96,-154.9"/>
<polygon fill="black" stroke="black" points="604.45,-157.38 609.77,-148.22 599.9,-152.06 604.45,-157.38"/>
<text text-anchor="middle" x="510" y="-189" font-family="Times,serif" font-size="10.00">b</text>
</g>
<!-- 6&#45;&gt;7 -->
<g id="edge10" class="edge">
<title>6&#45;&gt;7</title>
<path fill="none" stroke="black" d="M522.88,-30.63C542.06,-51.01 580,-91.36 602.98,-115.78"/>
<polygon fill="black" stroke="black" points="600.47,-118.22 609.87,-123.11 605.57,-113.42 600.47,-118.22"/>
<text text-anchor="middle" x="566.5" y="-80" font-family="Times,serif" font-size="10.00">a</text>
</g>
<!-- 7&#45;&gt;5 -->
<g id="edge11" class="edge">
<title>7&#45;&gt;5</title>
<path fill="none" stroke="black" d="M604.82,-136C566.6,-136 474.1,-136 425.32,-136"/>
<polygon fill="black" stroke="black" points="425.04,-132.5 415.04,-136 425.04,-139.5 425.04,-132.5"/>
<text text-anchor="middle" x="510" y="-139" font-family="Times,serif" font-size="10.00">b</text>
</g>
<g id="node9" class="node">
<title></title>
</g>
<!-- &#45;&gt;0 -->
<g id="edge1" class="edge">
<title>&#45;&gt;0</title>
<path fill="none" stroke="black" d="M54.15,-230C77.4,-230 111.26,-230 134.82,-230"/>
<polygon fill="black" stroke="black" points="134.84,-233.5 144.84,-230 134.84,-226.5 134.84,-233.5"/>
<text text-anchor="middle" x="99.5" y="-233" font-family="Times,serif" font-size="10.00">start</text>
</g>
</g>
</svg>

