<?xml version="1.0" encoding="UTF-8" standalone="no"?>
<!DOCTYPE svg PUBLIC "-//W3C//DTD SVG 1.1//EN"
 "http://www.w3.org/Graphics/SVG/1.1/DTD/svg11.dtd">
<!-- Generated by graphviz version 2.43.0 (0)
 -->
<!-- Title: %3 Pages: 1 -->
<svg width="649pt" height="357pt"
 viewBox="0.00 0.00 649.00 357.12" xmlns="http://www.w3.org/2000/svg" xmlns:xlink="http://www.w3.org/1999/xlink">
<g id="graph0" class="graph" transform="scale(1 1) rotate(0) translate(4 353.12)">
<title>%3</title>
<polygon fill="white" stroke="transparent" points="-4,4 -4,-353.12 645,-353.12 645,4 -4,4"/>
<!-- 0 -->
<g id="node1" class="node">
<title>0</title>
<ellipse fill="none" stroke="black" cx="163" cy="-188.12" rx="18" ry="18"/>
<text text-anchor="middle" x="163" y="-185.02" font-family="Times,serif" font-size="12.00">0</text>
</g>
<!-- 1 -->
<g id="node2" class="node">
<title>1</title>
<ellipse fill="none" stroke="black" cx="276" cy="-188.12" rx="18" ry="18"/>
<text text-anchor="middle" x="276" y="-185.02" font-family="Times,serif" font-size="12.00">1</text>
</g>
<!-- 0&#45;&gt;1 -->
<g id="edge2" class="edge">
<title>0&#45;&gt;1</title>
<path fill="none" stroke="black" d="M181.34,-188.12C199.1,-188.12 226.96,-188.12 247.68,-188.12"/>
<polygon fill="black" stroke="black" points="247.78,-191.62 257.78,-188.12 247.78,-184.62 247.78,-191.62"/>
<text text-anchor="middle" x="219.5" y="-191.12" font-family="Times,serif" font-size="10.00">a</text>
</g>
<!-- 5 -->
<g id="node6" class="node">
<title>5</title>
<ellipse fill="none" stroke="black" cx="393" cy="-76.12" rx="18" ry="18"/>
<ellipse fill="none" stroke="black" cx="393" cy="-76.12" rx="22" ry="22"/>
<text text-anchor="middle" x="393" y="-73.02" font-family="Times,serif" font-size="12.00">5</text>
</g>
<!-- 0&#45;&gt;5 -->
<g id="edge7" class="edge">
<title>0&#45;&gt;5</title>
<path fill="none" stroke="black" d="M178.69,-178.98C196.96,-167.79 229.23,-148.55 258,-134.12 293.32,-116.4 335.3,-98.76 362.74,-87.67"/>
<polygon fill="black" stroke="black" points="364.18,-90.86 372.15,-83.89 361.57,-84.36 364.18,-90.86"/>
<text text-anchor="middle" x="276" y="-137.12" font-family="Times,serif" font-size="10.00">b</text>
</g>
<!-- 2 -->
<g id="node3" class="node">
<title>2</title>
<ellipse fill="none" stroke="black" cx="393" cy="-220.12" rx="18" ry="18"/>
<text text-anchor="middle" x="393" y="-217.02" font-family="Times,serif" font-size="12.00">2</text>
</g>
<!-- 1&#45;&gt;2 -->
<g id="edge3" class="edge">
<title>1&#45;&gt;2</title>
<path fill="none" stroke="black" d="M293.48,-192.7C312.35,-197.95 343.52,-206.63 365.75,-212.81"/>
<polygon fill="black" stroke="black" points="364.98,-216.23 375.55,-215.54 366.86,-209.49 364.98,-216.23"/>
<text text-anchor="middle" x="332.5" y="-207.12" font-family="Times,serif" font-size="10.00">a</text>
</g>
<!-- 1&#45;&gt;5 -->
<g id="edge8" class="edge">
<title>1&#45;&gt;5</title>
<path fill="none" stroke="black" d="M289.75,-175.7C308.95,-157 345.6,-121.31 369.4,-98.12"/>
<polygon fill="black" stroke="black" points="371.92,-100.56 376.64,-91.07 367.04,-95.54 371.92,-100.56"/>
<text text-anchor="middle" x="332.5" y="-139.12" font-family="Times,serif" font-size="10.00">a</text>
</g>
<!-- 3 -->
<g id="node4" class="node">
<title>3</title>
<ellipse fill="none" stroke="black" cx="510" cy="-244.12" rx="18" ry="18"/>
<text text-anchor="middle" x="510" y="-241.02" font-family="Times,serif" font-size="12.00">3</text>
</g>
<!-- 2&#45;&gt;3 -->
<g id="edge4" class="edge">
<title>2&#45;&gt;3</title>
<path fill="none" stroke="black" d="M410.97,-223.66C429.76,-227.58 460.31,-233.95 482.31,-238.55"/>
<polygon fill="black" stroke="black" points="481.83,-242.02 492.34,-240.64 483.26,-235.17 481.83,-242.02"/>
<text text-anchor="middle" x="453.5" y="-235.12" font-family="Times,serif" font-size="10.00">a</text>
</g>
<!-- 4 -->
<g id="node5" class="node">
<title>4</title>
<ellipse fill="none" stroke="black" cx="623" cy="-314.12" rx="18" ry="18"/>
<text text-anchor="middle" x="623" y="-311.02" font-family="Times,serif" font-size="12.00">4</text>
</g>
<!-- 3&#45;&gt;4 -->
<g id="edge5" class="edge">
<title>3&#45;&gt;4</title>
<path fill="none" stroke="black" d="M525.51,-253.27C544.21,-265.06 576.93,-285.69 599.02,-299.63"/>
<polygon fill="black" stroke="black" points="597.16,-302.59 607.49,-304.96 600.89,-296.67 597.16,-302.59"/>
<text text-anchor="middle" x="566.5" y="-282.12" font-family="Times,serif" font-size="10.00">a</text>
</g>
<!-- 4&#45;&gt;0 -->
<g id="edge6" class="edge">
<title>4&#45;&gt;0</title>
<path fill="none" stroke="black" d="M605.69,-319.93C584.26,-327.03 545.31,-338.12 511,-338.12 275,-338.12 275,-338.12 275,-338.12 214.69,-338.12 183.4,-258.8 170.81,-215.52"/>
<polygon fill="black" stroke="black" points="174.11,-214.32 168.07,-205.62 167.36,-216.19 174.11,-214.32"/>
<text text-anchor="middle" x="393" y="-341.12" font-family="Times,serif" font-size="10.00">a</text>
</g>
<!-- 6 -->
<g id="node7" class="node">
<title>6</title>
<ellipse fill="none" stroke="black" cx="510" cy="-157.12" rx="18" ry="18"/>
<text text-anchor="middle" x="510" y="-154.02" font-family="Times,serif" font-size="12.00">6</text>
</g>
<!-- 5&#45;&gt;6 -->
<g id="edge9" class="edge">
<title>5&#45;&gt;6</title>
<path fill="none" stroke="black" d="M411.47,-88.42C431.46,-102.5 464.27,-125.61 486.24,-141.09"/>
<polygon fill="black" stroke="black" points="484.46,-144.11 494.65,-147.01 488.49,-138.39 484.46,-144.11"/>
<text text-anchor="middle" x="453.5" y="-122.12" font-family="Times,serif" font-size="10.00">a</text>
</g>
<!-- 7 -->
<g id="node8" class="node">
<title>7</title>
<ellipse fill="none" stroke="black" cx="623" cy="-76.12" rx="18" ry="18"/>
<text text-anchor="middle" x="623" y="-73.02" font-family="Times,serif" font-size="12.00">7</text>
</g>
<!-- 5&#45;&gt;7 -->
<g id="edge12" class="edge">
<title>5&#45;&gt;7</title>
<path fill="none" stroke="black" d="M415.04,-76.12C456.48,-76.12 548.61,-76.12 594.68,-76.12"/>
<polygon fill="black" stroke="black" points="594.82,-79.62 604.82,-76.12 594.82,-72.62 594.82,-79.62"/>
<text text-anchor="middle" x="510" y="-79.12" font-family="Times,serif" font-size="10.00">b</text>
</g>
<!-- 6&#45;&gt;7 -->
<g id="edge10" class="edge">
<title>6&#45;&gt;7</title>
<path fill="none" stroke="black" d="M525.06,-146.86C543.91,-133.1 577.57,-108.54 599.85,-92.28"/>
<polygon fill="black" stroke="black" points="602.04,-95.01 608.06,-86.29 597.91,-89.36 602.04,-95.01"/>
<text text-anchor="middle" x="566.5" y="-120.12" font-family="Times,serif" font-size="10.00">a</text>
</g>
<!-- 7&#45;&gt;5 -->
<g id="edge11" class="edge">
<title>7&#45;&gt;5</title>
<path fill="none" stroke="black" d="M610.87,-62.17C589.23,-36.87 539.42,12.6 492,-3.12 462.22,-12.99 434.15,-35.81 415.74,-53.33"/>
<polygon fill="black" stroke="black" points="413.16,-50.96 408.47,-60.46 418.06,-55.96 413.16,-50.96"/>
<text text-anchor="middle" x="510" y="-6.12" font-family="Times,serif" font-size="10.00">b</text>
</g>
<g id="node9" class="node">
<title></title>
</g>
<!-- &#45;&gt;0 -->
<g id="edge1" class="edge">
<title>&#45;&gt;0</title>
<path fill="none" stroke="black" d="M54.15,-188.12C77.4,-188.12 111.26,-188.12 134.82,-188.12"/>
<polygon fill="black" stroke="black" points="134.84,-191.62 144.84,-188.12 134.84,-184.62 134.84,-191.62"/>
<text text-anchor="middle" x="99.5" y="-191.12" font-family="Times,serif" font-size="10.00">start</text>
</g>
</g>
</svg>

