<?xml version="1.0" encoding="UTF-8" standalone="no"?>
<!DOCTYPE svg PUBLIC "-//W3C//DTD SVG 1.1//EN"
 "http://www.w3.org/Graphics/SVG/1.1/DTD/svg11.dtd">
<!-- Generated by graphviz version 2.43.0 (0)
 -->
<!-- Title: %3 Pages: 1 -->
<svg width="1882pt" height="1038pt"
 viewBox="0.00 0.00 1881.99 1038.00" xmlns="http://www.w3.org/2000/svg" xmlns:xlink="http://www.w3.org/1999/xlink">
<g id="graph0" class="graph" transform="scale(1 1) rotate(0) translate(4 1034)">
<title>%3</title>
<polygon fill="white" stroke="transparent" points="-4,4 -4,-1034 1877.99,-1034 1877.99,4 -4,4"/>
<!-- start -->
<g id="node1" class="node">
<title>start</title>
<polygon fill="none" stroke="black" points="195,-919 145,-919 145,-869 195,-869 195,-919"/>
<text text-anchor="middle" x="170" y="-890.3" font-family="Times,serif" font-size="14.00">Start</text>
</g>
<!-- 1_1 -->
<g id="node3" class="node">
<title>1_1</title>
<ellipse fill="none" stroke="black" cx="299" cy="-976" rx="27" ry="18"/>
<text text-anchor="middle" x="299" y="-972.3" font-family="Times,serif" font-size="14.00">1</text>
</g>
<!-- start&#45;&gt;1_1 -->
<g id="edge31" class="edge">
<title>start&#45;&gt;1_1</title>
<path fill="none" stroke="black" stroke-dasharray="5,2" d="M195.19,-909.62C216.66,-923.48 248.03,-943.73 270.46,-958.22"/>
<polygon fill="black" stroke="black" points="268.58,-961.17 278.88,-963.65 272.37,-955.29 268.58,-961.17"/>
<text text-anchor="middle" x="233.5" y="-938" font-family="Times,serif" font-size="10.00">ε</text>
</g>
<!-- 2_1 -->
<g id="node18" class="node">
<title>2_1</title>
<ellipse fill="none" stroke="black" cx="299" cy="-812" rx="18" ry="18"/>
<ellipse fill="none" stroke="black" cx="299" cy="-812" rx="22" ry="22"/>
<text text-anchor="middle" x="299" y="-808.3" font-family="Times,serif" font-size="14.00">1</text>
</g>
<!-- start&#45;&gt;2_1 -->
<g id="edge32" class="edge">
<title>start&#45;&gt;2_1</title>
<path fill="none" stroke="black" stroke-dasharray="5,2" d="M195.19,-878.38C217.04,-864.27 249.14,-843.55 271.64,-829.02"/>
<polygon fill="black" stroke="black" points="273.55,-831.95 280.05,-823.59 269.75,-826.07 273.55,-831.95"/>
<text text-anchor="middle" x="233.5" y="-856" font-family="Times,serif" font-size="10.00">ε</text>
</g>
<g id="node2" class="node">
<title></title>
</g>
<!-- &#45;&gt;start -->
<g id="edge1" class="edge">
<title>&#45;&gt;start</title>
<path fill="none" stroke="black" d="M54.19,-894C76.91,-894 109.95,-894 134.76,-894"/>
<polygon fill="black" stroke="black" points="134.83,-897.5 144.83,-894 134.83,-890.5 134.83,-897.5"/>
<text text-anchor="middle" x="99.5" y="-897" font-family="Times,serif" font-size="10.00">start</text>
</g>
<!-- 1_2 -->
<g id="node4" class="node">
<title>1_2</title>
<ellipse fill="none" stroke="black" cx="432" cy="-899" rx="27" ry="18"/>
<text text-anchor="middle" x="432" y="-895.3" font-family="Times,serif" font-size="14.00">2</text>
</g>
<!-- 1_1&#45;&gt;1_2 -->
<g id="edge2" class="edge">
<title>1_1&#45;&gt;1_2</title>
<path fill="none" stroke="black" d="M319.9,-964.31C341.83,-951.42 377.29,-930.57 402.24,-915.9"/>
<polygon fill="black" stroke="black" points="404.07,-918.89 410.92,-910.8 400.52,-912.85 404.07,-918.89"/>
<text text-anchor="middle" x="365.5" y="-941.8" font-family="Times,serif" font-size="14.00">a</text>
</g>
<!-- 1_3 -->
<g id="node5" class="node">
<title>1_3</title>
<ellipse fill="none" stroke="black" cx="1591.49" cy="-751" rx="18" ry="18"/>
<ellipse fill="none" stroke="black" cx="1591.49" cy="-751" rx="22" ry="22"/>
<text text-anchor="middle" x="1591.49" y="-747.3" font-family="Times,serif" font-size="14.00">3</text>
</g>
<!-- 1_1&#45;&gt;1_3 -->
<g id="edge3" class="edge">
<title>1_1&#45;&gt;1_3</title>
<path fill="none" stroke="black" d="M321.21,-986.45C346.65,-998 390.9,-1015 431,-1015 431,-1015 431,-1015 1462.99,-1015 1564.9,-1015 1585.39,-853.51 1589.48,-783.14"/>
<polygon fill="black" stroke="black" points="1592.98,-783.22 1589.99,-773.05 1585.99,-782.87 1592.98,-783.22"/>
<text text-anchor="middle" x="949" y="-1018.8" font-family="Times,serif" font-size="14.00">b</text>
</g>
<!-- 1_4 -->
<g id="node6" class="node">
<title>1_4</title>
<ellipse fill="none" stroke="black" cx="560" cy="-869" rx="18" ry="18"/>
<ellipse fill="none" stroke="black" cx="560" cy="-869" rx="22" ry="22"/>
<text text-anchor="middle" x="560" y="-865.3" font-family="Times,serif" font-size="14.00">4</text>
</g>
<!-- 1_2&#45;&gt;1_4 -->
<g id="edge4" class="edge">
<title>1_2&#45;&gt;1_4</title>
<path fill="none" stroke="black" d="M457.59,-893.14C477.87,-888.32 506.74,-881.44 528.49,-876.26"/>
<polygon fill="black" stroke="black" points="529.31,-879.67 538.22,-873.95 527.69,-872.86 529.31,-879.67"/>
<text text-anchor="middle" x="498.5" y="-887.8" font-family="Times,serif" font-size="14.00">a</text>
</g>
<!-- 1_5 -->
<g id="node7" class="node">
<title>1_5</title>
<ellipse fill="none" stroke="black" cx="1846.99" cy="-751" rx="27" ry="18"/>
<text text-anchor="middle" x="1846.99" y="-747.3" font-family="Times,serif" font-size="14.00">5</text>
</g>
<!-- 1_3&#45;&gt;1_5 -->
<g id="edge5" class="edge">
<title>1_3&#45;&gt;1_5</title>
<path fill="none" stroke="black" d="M1613.67,-751C1656.95,-751 1755.99,-751 1809.72,-751"/>
<polygon fill="black" stroke="black" points="1809.83,-754.5 1819.83,-751 1809.83,-747.5 1809.83,-754.5"/>
<text text-anchor="middle" x="1717.49" y="-754.8" font-family="Times,serif" font-size="14.00">a</text>
</g>
<!-- 1_6 -->
<g id="node8" class="node">
<title>1_6</title>
<ellipse fill="none" stroke="black" cx="1461.99" cy="-889" rx="27" ry="18"/>
<text text-anchor="middle" x="1461.99" y="-885.3" font-family="Times,serif" font-size="14.00">6</text>
</g>
<!-- 1_3&#45;&gt;1_6 -->
<g id="edge6" class="edge">
<title>1_3&#45;&gt;1_6</title>
<path fill="none" stroke="black" d="M1584.12,-771.75C1575.74,-795.9 1558.84,-835.58 1531.99,-860 1522.23,-868.88 1509.35,-875.28 1497.37,-879.77"/>
<polygon fill="black" stroke="black" points="1495.94,-876.56 1487.6,-883.1 1498.2,-883.18 1495.94,-876.56"/>
<text text-anchor="middle" x="1528.49" y="-869.8" font-family="Times,serif" font-size="14.00">b</text>
</g>
<!-- 1_4&#45;&gt;1_6 -->
<g id="edge8" class="edge">
<title>1_4&#45;&gt;1_6</title>
<path fill="none" stroke="black" d="M582.4,-869C607.47,-869 650.25,-869 687,-869 687,-869 687,-869 1333.49,-869 1365.2,-869 1400.81,-875.11 1426.32,-880.58"/>
<polygon fill="black" stroke="black" points="1425.73,-884.03 1436.25,-882.78 1427.25,-877.2 1425.73,-884.03"/>
<text text-anchor="middle" x="1010.5" y="-872.8" font-family="Times,serif" font-size="14.00">b</text>
</g>
<!-- 1_7 -->
<g id="node9" class="node">
<title>1_7</title>
<ellipse fill="none" stroke="black" cx="688" cy="-751" rx="27" ry="18"/>
<text text-anchor="middle" x="688" y="-747.3" font-family="Times,serif" font-size="14.00">7</text>
</g>
<!-- 1_4&#45;&gt;1_7 -->
<g id="edge7" class="edge">
<title>1_4&#45;&gt;1_7</title>
<path fill="none" stroke="black" d="M575.61,-853.07C586.9,-840.97 603.06,-824.06 618,-810 632.26,-796.58 648.93,-782.29 662.31,-771.14"/>
<polygon fill="black" stroke="black" points="664.69,-773.71 670.16,-764.64 660.23,-768.32 664.69,-773.71"/>
<text text-anchor="middle" x="621.5" y="-813.8" font-family="Times,serif" font-size="14.00">a</text>
</g>
<!-- 1_5&#45;&gt;1_6 -->
<g id="edge9" class="edge">
<title>1_5&#45;&gt;1_6</title>
<path fill="none" stroke="black" d="M1829.08,-764.68C1817,-774.03 1800.11,-786.24 1783.99,-795 1678.1,-852.5 1650.34,-872.38 1531.99,-895 1520.98,-897.1 1508.84,-896.88 1497.86,-895.75"/>
<polygon fill="black" stroke="black" points="1498.12,-892.25 1487.75,-894.42 1497.21,-899.19 1498.12,-892.25"/>
<text text-anchor="middle" x="1654.49" y="-866.8" font-family="Times,serif" font-size="14.00">a</text>
</g>
<!-- 1_6&#45;&gt;1_3 -->
<g id="edge10" class="edge">
<title>1_6&#45;&gt;1_3</title>
<path fill="none" stroke="black" d="M1476.88,-873.97C1499.06,-849.96 1542.66,-802.77 1568.92,-774.35"/>
<polygon fill="black" stroke="black" points="1571.62,-776.58 1575.84,-766.86 1566.48,-771.83 1571.62,-776.58"/>
<text text-anchor="middle" x="1528.49" y="-823.8" font-family="Times,serif" font-size="14.00">b</text>
</g>
<!-- 1_7&#45;&gt;1_3 -->
<g id="edge12" class="edge">
<title>1_7&#45;&gt;1_3</title>
<path fill="none" stroke="black" d="M715.1,-751C741.54,-751 783.61,-751 820,-751 820,-751 820,-751 1462.99,-751 1495.73,-751 1533.18,-751 1558.99,-751"/>
<polygon fill="black" stroke="black" points="1559.29,-754.5 1569.29,-751 1559.29,-747.5 1559.29,-754.5"/>
<text text-anchor="middle" x="1143.5" y="-754.8" font-family="Times,serif" font-size="14.00">b</text>
</g>
<!-- 1_8 -->
<g id="node10" class="node">
<title>1_8</title>
<ellipse fill="none" stroke="black" cx="821" cy="-633" rx="27" ry="18"/>
<text text-anchor="middle" x="821" y="-629.3" font-family="Times,serif" font-size="14.00">8</text>
</g>
<!-- 1_7&#45;&gt;1_8 -->
<g id="edge11" class="edge">
<title>1_7&#45;&gt;1_8</title>
<path fill="none" stroke="black" d="M704.08,-736.22C716.5,-724.15 734.67,-706.73 751,-692 765.54,-678.89 782.21,-664.61 795.53,-653.38"/>
<polygon fill="black" stroke="black" points="797.93,-655.94 803.34,-646.82 793.43,-650.57 797.93,-655.94"/>
<text text-anchor="middle" x="754.5" y="-695.8" font-family="Times,serif" font-size="14.00">a</text>
</g>
<!-- 1_8&#45;&gt;1_3 -->
<g id="edge14" class="edge">
<title>1_8&#45;&gt;1_3</title>
<path fill="none" stroke="black" d="M848.06,-633C873.54,-633 913.44,-633 948,-633 948,-633 948,-633 1462.99,-633 1515.6,-633 1555.7,-687.77 1575.92,-722.68"/>
<polygon fill="black" stroke="black" points="1572.93,-724.5 1580.86,-731.51 1579.04,-721.08 1572.93,-724.5"/>
<text text-anchor="middle" x="1206.5" y="-636.8" font-family="Times,serif" font-size="14.00">b</text>
</g>
<!-- 1_9 -->
<g id="node11" class="node">
<title>1_9</title>
<ellipse fill="none" stroke="black" cx="949" cy="-439" rx="18" ry="18"/>
<ellipse fill="none" stroke="black" cx="949" cy="-439" rx="22" ry="22"/>
<text text-anchor="middle" x="949" y="-435.3" font-family="Times,serif" font-size="14.00">9</text>
</g>
<!-- 1_8&#45;&gt;1_9 -->
<g id="edge13" class="edge">
<title>1_8&#45;&gt;1_9</title>
<path fill="none" stroke="black" d="M832.74,-616.46C854.54,-582.9 904.14,-506.53 930.61,-465.78"/>
<polygon fill="black" stroke="black" points="933.68,-467.47 936.19,-457.18 927.81,-463.66 933.68,-467.47"/>
<text text-anchor="middle" x="887.5" y="-539.8" font-family="Times,serif" font-size="14.00">a</text>
</g>
<!-- 1_10 -->
<g id="node12" class="node">
<title>1_10</title>
<ellipse fill="none" stroke="black" cx="1077" cy="-439" rx="27" ry="18"/>
<text text-anchor="middle" x="1077" y="-435.3" font-family="Times,serif" font-size="14.00">10</text>
</g>
<!-- 1_9&#45;&gt;1_10 -->
<g id="edge15" class="edge">
<title>1_9&#45;&gt;1_10</title>
<path fill="none" stroke="black" d="M971.09,-439C989.72,-439 1017.29,-439 1039.5,-439"/>
<polygon fill="black" stroke="black" points="1039.58,-442.5 1049.58,-439 1039.58,-435.5 1039.58,-442.5"/>
<text text-anchor="middle" x="1010.5" y="-442.8" font-family="Times,serif" font-size="14.00">a</text>
</g>
<!-- 1_11 -->
<g id="node13" class="node">
<title>1_11</title>
<ellipse fill="none" stroke="black" cx="1717.49" cy="-229" rx="19.5" ry="19.5"/>
<ellipse fill="none" stroke="black" cx="1717.49" cy="-229" rx="23.5" ry="23.5"/>
<text text-anchor="middle" x="1717.49" y="-225.3" font-family="Times,serif" font-size="14.00">11</text>
</g>
<!-- 1_9&#45;&gt;1_11 -->
<g id="edge16" class="edge">
<title>1_9&#45;&gt;1_11</title>
<path fill="none" stroke="black" d="M951.49,-416.93C958.07,-327.91 988.28,0 1076,0 1076,0 1076,0 1592.49,0 1680.29,0 1706.23,-131.77 1713.65,-195.4"/>
<polygon fill="black" stroke="black" points="1710.17,-195.79 1714.72,-205.36 1717.13,-195.04 1710.17,-195.79"/>
<text text-anchor="middle" x="1332.49" y="-3.8" font-family="Times,serif" font-size="14.00">b</text>
</g>
<!-- 1_10&#45;&gt;1_3 -->
<g id="edge18" class="edge">
<title>1_10&#45;&gt;1_3</title>
<path fill="none" stroke="black" d="M1104.06,-439.98C1180.52,-444.27 1406.76,-467.15 1531.99,-589 1567.98,-624.02 1581.93,-682.8 1587.26,-719.1"/>
<polygon fill="black" stroke="black" points="1583.81,-719.7 1588.6,-729.15 1590.75,-718.78 1583.81,-719.7"/>
<text text-anchor="middle" x="1332.49" y="-490.8" font-family="Times,serif" font-size="14.00">b</text>
</g>
<!-- 1_12 -->
<g id="node14" class="node">
<title>1_12</title>
<ellipse fill="none" stroke="black" cx="1206.5" cy="-369" rx="19.5" ry="19.5"/>
<ellipse fill="none" stroke="black" cx="1206.5" cy="-369" rx="23.5" ry="23.5"/>
<text text-anchor="middle" x="1206.5" y="-365.3" font-family="Times,serif" font-size="14.00">12</text>
</g>
<!-- 1_10&#45;&gt;1_12 -->
<g id="edge17" class="edge">
<title>1_10&#45;&gt;1_12</title>
<path fill="none" stroke="black" d="M1098.48,-427.75C1119.61,-416.15 1152.75,-397.96 1176.55,-384.89"/>
<polygon fill="black" stroke="black" points="1178.4,-387.87 1185.48,-379.99 1175.03,-381.73 1178.4,-387.87"/>
<text text-anchor="middle" x="1143.5" y="-407.8" font-family="Times,serif" font-size="14.00">a</text>
</g>
<!-- 1_11&#45;&gt;1_5 -->
<g id="edge19" class="edge">
<title>1_11&#45;&gt;1_5</title>
<path fill="none" stroke="black" d="M1724.05,-251.77C1744.66,-336.14 1816.65,-630.89 1839.19,-723.16"/>
<polygon fill="black" stroke="black" points="1835.85,-724.26 1841.63,-733.15 1842.65,-722.6 1835.85,-724.26"/>
<text text-anchor="middle" x="1780.49" y="-493.8" font-family="Times,serif" font-size="14.00">a</text>
</g>
<!-- 1_11&#45;&gt;1_11 -->
<g id="edge20" class="edge">
<title>1_11&#45;&gt;1_11</title>
<path fill="none" stroke="black" d="M1709.24,-251.11C1702.81,-278.32 1705.56,-310.5 1717.49,-310.5 1727.97,-310.5 1731.36,-285.64 1727.67,-261.15"/>
<polygon fill="black" stroke="black" points="1731.06,-260.27 1725.73,-251.11 1724.19,-261.6 1731.06,-260.27"/>
<text text-anchor="middle" x="1717.49" y="-314.3" font-family="Times,serif" font-size="14.00">b</text>
</g>
<!-- 1_12&#45;&gt;1_11 -->
<g id="edge22" class="edge">
<title>1_12&#45;&gt;1_11</title>
<path fill="none" stroke="black" d="M1230.32,-370.23C1294.16,-372.79 1478.82,-374.1 1614.99,-314 1646.36,-300.15 1675.64,-273.58 1694.61,-253.81"/>
<polygon fill="black" stroke="black" points="1697.32,-256.04 1701.6,-246.34 1692.21,-251.25 1697.32,-256.04"/>
<text text-anchor="middle" x="1461.99" y="-364.8" font-family="Times,serif" font-size="14.00">b</text>
</g>
<!-- 1_13 -->
<g id="node15" class="node">
<title>1_13</title>
<ellipse fill="none" stroke="black" cx="1332.49" cy="-232" rx="19.5" ry="19.5"/>
<ellipse fill="none" stroke="black" cx="1332.49" cy="-232" rx="23.5" ry="23.5"/>
<text text-anchor="middle" x="1332.49" y="-228.3" font-family="Times,serif" font-size="14.00">13</text>
</g>
<!-- 1_12&#45;&gt;1_13 -->
<g id="edge21" class="edge">
<title>1_12&#45;&gt;1_13</title>
<path fill="none" stroke="black" d="M1222.95,-351.93C1244.58,-328.03 1284.01,-284.46 1308.92,-256.94"/>
<polygon fill="black" stroke="black" points="1311.73,-259.05 1315.85,-249.29 1306.54,-254.35 1311.73,-259.05"/>
<text text-anchor="middle" x="1269.5" y="-304.8" font-family="Times,serif" font-size="14.00">a</text>
</g>
<!-- 1_13&#45;&gt;1_11 -->
<g id="edge24" class="edge">
<title>1_13&#45;&gt;1_11</title>
<path fill="none" stroke="black" d="M1352.9,-220.33C1372.75,-209.05 1404.87,-192.59 1434.99,-185 1512.64,-165.43 1537.15,-158.22 1614.99,-177 1641.86,-183.48 1669.61,-198.36 1689.29,-210.55"/>
<polygon fill="black" stroke="black" points="1687.42,-213.51 1697.73,-215.92 1691.17,-207.6 1687.42,-213.51"/>
<text text-anchor="middle" x="1528.49" y="-170.8" font-family="Times,serif" font-size="14.00">b</text>
</g>
<!-- 1_14 -->
<g id="node16" class="node">
<title>1_14</title>
<ellipse fill="none" stroke="black" cx="1461.99" cy="-232" rx="27" ry="18"/>
<text text-anchor="middle" x="1461.99" y="-228.3" font-family="Times,serif" font-size="14.00">14</text>
</g>
<!-- 1_13&#45;&gt;1_14 -->
<g id="edge23" class="edge">
<title>1_13&#45;&gt;1_14</title>
<path fill="none" stroke="black" d="M1356,-232C1375,-232 1402.59,-232 1424.71,-232"/>
<polygon fill="black" stroke="black" points="1424.76,-235.5 1434.76,-232 1424.76,-228.5 1424.76,-235.5"/>
<text text-anchor="middle" x="1395.49" y="-235.8" font-family="Times,serif" font-size="14.00">a</text>
</g>
<!-- 1_14&#45;&gt;1_3 -->
<g id="edge26" class="edge">
<title>1_14&#45;&gt;1_3</title>
<path fill="none" stroke="black" d="M1470.25,-249.17C1475.78,-262.59 1483.38,-281.8 1488.99,-299 1539.31,-453.12 1573.32,-644.79 1585.5,-719.31"/>
<polygon fill="black" stroke="black" points="1582.09,-720.12 1587.14,-729.43 1589,-719 1582.09,-720.12"/>
<text text-anchor="middle" x="1528.49" y="-450.8" font-family="Times,serif" font-size="14.00">b</text>
</g>
<!-- 1_15 -->
<g id="node17" class="node">
<title>1_15</title>
<ellipse fill="none" stroke="black" cx="1591.49" cy="-229" rx="19.5" ry="19.5"/>
<ellipse fill="none" stroke="black" cx="1591.49" cy="-229" rx="23.5" ry="23.5"/>
<text text-anchor="middle" x="1591.49" y="-225.3" font-family="Times,serif" font-size="14.00">15</text>
</g>
<!-- 1_14&#45;&gt;1_15 -->
<g id="edge25" class="edge">
<title>1_14&#45;&gt;1_15</title>
<path fill="none" stroke="black" d="M1489.1,-231.39C1508.92,-230.92 1536.3,-230.28 1557.61,-229.77"/>
<polygon fill="black" stroke="black" points="1557.92,-233.27 1567.83,-229.53 1557.75,-226.27 1557.92,-233.27"/>
<text text-anchor="middle" x="1528.49" y="-234.8" font-family="Times,serif" font-size="14.00">a</text>
</g>
<!-- 1_15&#45;&gt;1_11 -->
<g id="edge28" class="edge">
<title>1_15&#45;&gt;1_11</title>
<path fill="none" stroke="black" d="M1615.23,-229C1634.46,-229 1662.24,-229 1683.85,-229"/>
<polygon fill="black" stroke="black" points="1683.89,-232.5 1693.89,-229 1683.89,-225.5 1683.89,-232.5"/>
<text text-anchor="middle" x="1654.49" y="-232.8" font-family="Times,serif" font-size="14.00">b</text>
</g>
<!-- 1_15&#45;&gt;1_15 -->
<g id="edge27" class="edge">
<title>1_15&#45;&gt;1_15</title>
<path fill="none" stroke="black" d="M1583.24,-251.11C1576.81,-278.32 1579.56,-310.5 1591.49,-310.5 1601.97,-310.5 1605.37,-285.64 1601.67,-261.15"/>
<polygon fill="black" stroke="black" points="1605.07,-260.27 1599.74,-251.11 1598.19,-261.6 1605.07,-260.27"/>
<text text-anchor="middle" x="1591.49" y="-314.3" font-family="Times,serif" font-size="14.00">a</text>
</g>
<!-- 2_1&#45;&gt;2_1 -->
<g id="edge29" class="edge">
<title>2_1&#45;&gt;2_1</title>
<path fill="none" stroke="black" d="M294.74,-833.71C291.42,-860.42 292.84,-892 299,-892 304.39,-892 306.15,-867.82 304.28,-843.88"/>
<polygon fill="black" stroke="black" points="307.74,-843.31 303.26,-833.71 300.77,-844.01 307.74,-843.31"/>
<text text-anchor="middle" x="299" y="-895.8" font-family="Times,serif" font-size="14.00">a</text>
<polyline fill="none" stroke="black" points="302.5,-892 295.5,-892 299.13,-892 "/>
</g>
<!-- 2_1&#45;&gt;2_1 -->
<g id="edge30" class="edge">
<title>2_1&#45;&gt;2_1</title>
<path fill="none" stroke="black" d="M293.27,-833.42C283.31,-881.75 285.22,-950 299,-950 311.87,-950 314.39,-890.51 306.56,-843.29"/>
<polygon fill="black" stroke="black" points="310,-842.62 304.73,-833.42 303.11,-843.89 310,-842.62"/>
<text text-anchor="middle" x="299" y="-953.8" font-family="Times,serif" font-size="14.00">b</text>
<polyline fill="none" stroke="black" points="302.5,-950 295.5,-950 299.15,-950 "/>
</g>
</g>
</svg>
