<?xml version="1.0" encoding="UTF-8" standalone="no"?>
<!DOCTYPE svg PUBLIC "-//W3C//DTD SVG 1.1//EN"
 "http://www.w3.org/Graphics/SVG/1.1/DTD/svg11.dtd">
<!-- Generated by graphviz version 2.43.0 (0)
 -->
<!-- Title: %3 Pages: 1 -->
<svg width="979pt" height="622pt"
 viewBox="0.00 0.00 979.00 621.87" xmlns="http://www.w3.org/2000/svg" xmlns:xlink="http://www.w3.org/1999/xlink">
<g id="graph0" class="graph" transform="scale(1 1) rotate(0) translate(4 617.87)">
<title>%3</title>
<polygon fill="white" stroke="transparent" points="-4,4 -4,-617.87 975,-617.87 975,4 -4,4"/>
<!-- start -->
<g id="node1" class="node">
<title>start</title>
<polygon fill="none" stroke="black" points="195,-374.87 145,-374.87 145,-324.87 195,-324.87 195,-374.87"/>
<text text-anchor="middle" x="170" y="-346.17" font-family="Times,serif" font-size="14.00">Start</text>
</g>
<!-- 1_1 -->
<g id="node3" class="node">
<title>1_1</title>
<ellipse fill="none" stroke="black" cx="299" cy="-408.87" rx="27" ry="18"/>
<text text-anchor="middle" x="299" y="-405.17" font-family="Times,serif" font-size="14.00">1</text>
</g>
<!-- start&#45;&gt;1_1 -->
<g id="edge22" class="edge">
<title>start&#45;&gt;1_1</title>
<path fill="none" stroke="black" stroke-dasharray="5,2" d="M195.19,-361.11C215.62,-370.6 245.02,-384.26 267.15,-394.54"/>
<polygon fill="black" stroke="black" points="265.9,-397.82 276.44,-398.86 268.85,-391.47 265.9,-397.82"/>
<text text-anchor="middle" x="233.5" y="-381.87" font-family="Times,serif" font-size="10.00">ε</text>
</g>
<!-- 2_1 -->
<g id="node8" class="node">
<title>2_1</title>
<ellipse fill="none" stroke="black" cx="299" cy="-290.87" rx="27" ry="18"/>
<text text-anchor="middle" x="299" y="-287.17" font-family="Times,serif" font-size="14.00">1</text>
</g>
<!-- start&#45;&gt;2_1 -->
<g id="edge23" class="edge">
<title>start&#45;&gt;2_1</title>
<path fill="none" stroke="black" stroke-dasharray="5,2" d="M195.19,-338.64C215.62,-329.14 245.02,-315.49 267.15,-305.2"/>
<polygon fill="black" stroke="black" points="268.85,-308.27 276.44,-300.89 265.9,-301.93 268.85,-308.27"/>
<text text-anchor="middle" x="233.5" y="-323.87" font-family="Times,serif" font-size="10.00">ε</text>
</g>
<g id="node2" class="node">
<title></title>
</g>
<!-- &#45;&gt;start -->
<g id="edge1" class="edge">
<title>&#45;&gt;start</title>
<path fill="none" stroke="black" d="M54.19,-349.87C76.91,-349.87 109.95,-349.87 134.76,-349.87"/>
<polygon fill="black" stroke="black" points="134.83,-353.37 144.83,-349.87 134.83,-346.37 134.83,-353.37"/>
<text text-anchor="middle" x="99.5" y="-352.87" font-family="Times,serif" font-size="10.00">start</text>
</g>
<!-- 1_2 -->
<g id="node4" class="node">
<title>1_2</title>
<ellipse fill="none" stroke="black" cx="432" cy="-515.87" rx="27" ry="18"/>
<text text-anchor="middle" x="432" y="-512.17" font-family="Times,serif" font-size="14.00">2</text>
</g>
<!-- 1_1&#45;&gt;1_2 -->
<g id="edge2" class="edge">
<title>1_1&#45;&gt;1_2</title>
<path fill="none" stroke="black" d="M316.86,-422.64C339.56,-441.18 380.1,-474.3 406.26,-495.67"/>
<polygon fill="black" stroke="black" points="404.25,-498.54 414.21,-502.16 408.68,-493.12 404.25,-498.54"/>
<text text-anchor="middle" x="365.5" y="-465.67" font-family="Times,serif" font-size="14.00">a</text>
</g>
<!-- 1_3 -->
<g id="node5" class="node">
<title>1_3</title>
<ellipse fill="none" stroke="black" cx="683" cy="-454.87" rx="18" ry="18"/>
<ellipse fill="none" stroke="black" cx="683" cy="-454.87" rx="22" ry="22"/>
<text text-anchor="middle" x="683" y="-451.17" font-family="Times,serif" font-size="14.00">3</text>
</g>
<!-- 1_1&#45;&gt;1_3 -->
<g id="edge6" class="edge">
<title>1_1&#45;&gt;1_3</title>
<path fill="none" stroke="black" d="M325.66,-411.96C393.42,-420.12 577.01,-442.23 650.74,-451.11"/>
<polygon fill="black" stroke="black" points="650.44,-454.6 660.79,-452.32 651.28,-447.65 650.44,-454.6"/>
<text text-anchor="middle" x="498.5" y="-436.67" font-family="Times,serif" font-size="14.00">b</text>
</g>
<!-- 1_4 -->
<g id="node6" class="node">
<title>1_4</title>
<ellipse fill="none" stroke="black" cx="560" cy="-518.87" rx="18" ry="18"/>
<ellipse fill="none" stroke="black" cx="560" cy="-518.87" rx="22" ry="22"/>
<text text-anchor="middle" x="560" y="-515.17" font-family="Times,serif" font-size="14.00">4</text>
</g>
<!-- 1_2&#45;&gt;1_4 -->
<g id="edge3" class="edge">
<title>1_2&#45;&gt;1_4</title>
<path fill="none" stroke="black" d="M459.11,-516.49C479.09,-516.97 506.71,-517.63 527.84,-518.13"/>
<polygon fill="black" stroke="black" points="527.85,-521.63 537.93,-518.37 528.02,-514.63 527.85,-521.63"/>
<text text-anchor="middle" x="498.5" y="-520.67" font-family="Times,serif" font-size="14.00">a</text>
</g>
<!-- 1_3&#45;&gt;1_3 -->
<g id="edge7" class="edge">
<title>1_3&#45;&gt;1_3</title>
<path fill="none" stroke="black" d="M675.21,-475.77C668.74,-502.64 671.34,-534.87 683,-534.87 693.25,-534.87 696.49,-509.98 692.74,-485.7"/>
<polygon fill="black" stroke="black" points="696.15,-484.91 690.79,-475.77 689.28,-486.25 696.15,-484.91"/>
<text text-anchor="middle" x="683" y="-538.67" font-family="Times,serif" font-size="14.00">b</text>
</g>
<!-- 1_5 -->
<g id="node7" class="node">
<title>1_5</title>
<ellipse fill="none" stroke="black" cx="811" cy="-454.87" rx="27" ry="18"/>
<text text-anchor="middle" x="811" y="-451.17" font-family="Times,serif" font-size="14.00">5</text>
</g>
<!-- 1_3&#45;&gt;1_5 -->
<g id="edge8" class="edge">
<title>1_3&#45;&gt;1_5</title>
<path fill="none" stroke="black" d="M705.09,-454.87C723.72,-454.87 751.29,-454.87 773.5,-454.87"/>
<polygon fill="black" stroke="black" points="773.58,-458.37 783.58,-454.87 773.58,-451.37 773.58,-458.37"/>
<text text-anchor="middle" x="744.5" y="-458.67" font-family="Times,serif" font-size="14.00">a</text>
</g>
<!-- 1_4&#45;&gt;1_3 -->
<g id="edge5" class="edge">
<title>1_4&#45;&gt;1_3</title>
<path fill="none" stroke="black" d="M579.91,-508.87C599.89,-498.3 631.59,-481.53 654.37,-469.48"/>
<polygon fill="black" stroke="black" points="656.02,-472.57 663.23,-464.8 652.75,-466.38 656.02,-472.57"/>
<text text-anchor="middle" x="621.5" y="-490.67" font-family="Times,serif" font-size="14.00">b</text>
</g>
<!-- 1_4&#45;&gt;1_4 -->
<g id="edge4" class="edge">
<title>1_4&#45;&gt;1_4</title>
<path fill="none" stroke="black" d="M552.21,-539.77C545.74,-566.64 548.34,-598.87 560,-598.87 570.25,-598.87 573.49,-573.98 569.74,-549.7"/>
<polygon fill="black" stroke="black" points="573.15,-548.91 567.79,-539.77 566.28,-550.25 573.15,-548.91"/>
<text text-anchor="middle" x="560" y="-602.67" font-family="Times,serif" font-size="14.00">a</text>
</g>
<!-- 1_5&#45;&gt;1_3 -->
<g id="edge9" class="edge">
<title>1_5&#45;&gt;1_3</title>
<path fill="none" stroke="black" d="M793.23,-441.15C779.57,-431.64 759.58,-421.42 741,-425.87 730.47,-428.4 719.7,-433.2 710.39,-438.19"/>
<polygon fill="black" stroke="black" points="708.6,-435.18 701.63,-443.16 712.06,-441.27 708.6,-435.18"/>
<text text-anchor="middle" x="744.5" y="-429.67" font-family="Times,serif" font-size="14.00">a</text>
</g>
<!-- 2_2 -->
<g id="node9" class="node">
<title>2_2</title>
<ellipse fill="none" stroke="black" cx="432" cy="-147.87" rx="27" ry="18"/>
<text text-anchor="middle" x="432" y="-144.17" font-family="Times,serif" font-size="14.00">2</text>
</g>
<!-- 2_1&#45;&gt;2_2 -->
<g id="edge10" class="edge">
<title>2_1&#45;&gt;2_2</title>
<path fill="none" stroke="black" d="M314.02,-275.57C337.07,-250.41 383.09,-200.18 410.02,-170.77"/>
<polygon fill="black" stroke="black" points="412.91,-172.8 417.08,-163.07 407.75,-168.07 412.91,-172.8"/>
<text text-anchor="middle" x="365.5" y="-223.67" font-family="Times,serif" font-size="14.00">a</text>
</g>
<!-- 2_3 -->
<g id="node10" class="node">
<title>2_3</title>
<ellipse fill="none" stroke="black" cx="683" cy="-52.87" rx="18" ry="18"/>
<ellipse fill="none" stroke="black" cx="683" cy="-52.87" rx="22" ry="22"/>
<text text-anchor="middle" x="683" y="-49.17" font-family="Times,serif" font-size="14.00">3</text>
</g>
<!-- 2_1&#45;&gt;2_3 -->
<g id="edge11" class="edge">
<title>2_1&#45;&gt;2_3</title>
<path fill="none" stroke="black" d="M326.14,-290.22C377.97,-287.92 496.16,-277.65 582,-231.87 605.57,-219.3 610.01,-211.98 625,-189.87 647.63,-156.49 663.9,-112.71 673.12,-83.72"/>
<polygon fill="black" stroke="black" points="676.48,-84.72 676.09,-74.13 669.79,-82.65 676.48,-84.72"/>
<text text-anchor="middle" x="498.5" y="-268.67" font-family="Times,serif" font-size="14.00">b</text>
</g>
<!-- 2_2&#45;&gt;2_3 -->
<g id="edge13" class="edge">
<title>2_2&#45;&gt;2_3</title>
<path fill="none" stroke="black" d="M450.14,-134.32C470.1,-119.23 504.61,-95.21 538,-81.87 575.12,-67.05 620.77,-59.5 650.59,-55.88"/>
<polygon fill="black" stroke="black" points="651.27,-59.33 660.81,-54.72 650.48,-52.37 651.27,-59.33"/>
<text text-anchor="middle" x="560" y="-85.67" font-family="Times,serif" font-size="14.00">b</text>
</g>
<!-- 2_4 -->
<g id="node11" class="node">
<title>2_4</title>
<ellipse fill="none" stroke="black" cx="560" cy="-147.87" rx="18" ry="18"/>
<ellipse fill="none" stroke="black" cx="560" cy="-147.87" rx="22" ry="22"/>
<text text-anchor="middle" x="560" y="-144.17" font-family="Times,serif" font-size="14.00">4</text>
</g>
<!-- 2_2&#45;&gt;2_4 -->
<g id="edge12" class="edge">
<title>2_2&#45;&gt;2_4</title>
<path fill="none" stroke="black" d="M459.11,-147.87C479.09,-147.87 506.71,-147.87 527.84,-147.87"/>
<polygon fill="black" stroke="black" points="527.93,-151.37 537.93,-147.87 527.93,-144.37 527.93,-151.37"/>
<text text-anchor="middle" x="498.5" y="-151.67" font-family="Times,serif" font-size="14.00">a</text>
</g>
<!-- 2_5 -->
<g id="node12" class="node">
<title>2_5</title>
<ellipse fill="none" stroke="black" cx="811" cy="-111.87" rx="27" ry="18"/>
<text text-anchor="middle" x="811" y="-108.17" font-family="Times,serif" font-size="14.00">5</text>
</g>
<!-- 2_3&#45;&gt;2_5 -->
<g id="edge14" class="edge">
<title>2_3&#45;&gt;2_5</title>
<path fill="none" stroke="black" d="M703.14,-61.83C723.35,-71.3 755.51,-86.36 779.28,-97.49"/>
<polygon fill="black" stroke="black" points="778.03,-100.77 788.57,-101.84 781,-94.43 778.03,-100.77"/>
<text text-anchor="middle" x="744.5" y="-86.67" font-family="Times,serif" font-size="14.00">a</text>
</g>
<!-- 2_6 -->
<g id="node13" class="node">
<title>2_6</title>
<ellipse fill="none" stroke="black" cx="944" cy="-18.87" rx="27" ry="18"/>
<text text-anchor="middle" x="944" y="-15.17" font-family="Times,serif" font-size="14.00">6</text>
</g>
<!-- 2_3&#45;&gt;2_6 -->
<g id="edge15" class="edge">
<title>2_3&#45;&gt;2_6</title>
<path fill="none" stroke="black" d="M705.2,-50.09C749.57,-44.26 852.68,-30.73 907.4,-23.55"/>
<polygon fill="black" stroke="black" points="907.89,-27.01 917.35,-22.24 906.98,-20.07 907.89,-27.01"/>
<text text-anchor="middle" x="811" y="-43.67" font-family="Times,serif" font-size="14.00">b</text>
</g>
<!-- 2_4&#45;&gt;2_4 -->
<g id="edge16" class="edge">
<title>2_4&#45;&gt;2_4</title>
<path fill="none" stroke="black" d="M552.21,-168.77C545.74,-195.64 548.34,-227.87 560,-227.87 570.25,-227.87 573.49,-202.98 569.74,-178.7"/>
<polygon fill="black" stroke="black" points="573.15,-177.91 567.79,-168.77 566.28,-179.25 573.15,-177.91"/>
<text text-anchor="middle" x="560" y="-231.67" font-family="Times,serif" font-size="14.00">a</text>
</g>
<!-- 2_7 -->
<g id="node14" class="node">
<title>2_7</title>
<ellipse fill="none" stroke="black" cx="683" cy="-172.87" rx="18" ry="18"/>
<ellipse fill="none" stroke="black" cx="683" cy="-172.87" rx="22" ry="22"/>
<text text-anchor="middle" x="683" y="-169.17" font-family="Times,serif" font-size="14.00">7</text>
</g>
<!-- 2_4&#45;&gt;2_7 -->
<g id="edge17" class="edge">
<title>2_4&#45;&gt;2_7</title>
<path fill="none" stroke="black" d="M581.8,-152.17C600.85,-156.1 629.29,-161.98 651.01,-166.47"/>
<polygon fill="black" stroke="black" points="650.56,-169.95 661.07,-168.55 651.98,-163.1 650.56,-169.95"/>
<text text-anchor="middle" x="621.5" y="-164.67" font-family="Times,serif" font-size="14.00">b</text>
</g>
<!-- 2_5&#45;&gt;2_6 -->
<g id="edge18" class="edge">
<title>2_5&#45;&gt;2_6</title>
<path fill="none" stroke="black" d="M830.21,-98.94C852.7,-82.98 891.11,-55.71 916.77,-37.49"/>
<polygon fill="black" stroke="black" points="918.81,-40.34 924.94,-31.69 914.76,-34.63 918.81,-40.34"/>
<text text-anchor="middle" x="877.5" y="-69.67" font-family="Times,serif" font-size="14.00">a</text>
</g>
<!-- 2_6&#45;&gt;2_3 -->
<g id="edge19" class="edge">
<title>2_6&#45;&gt;2_3</title>
<path fill="none" stroke="black" d="M918.71,-12.12C887.25,-4.43 830.88,5.8 784,-4.87 757.58,-10.88 729.99,-24.79 710.5,-36.09"/>
<polygon fill="black" stroke="black" points="708.68,-33.1 701.89,-41.23 712.27,-39.11 708.68,-33.1"/>
<text text-anchor="middle" x="811" y="-8.67" font-family="Times,serif" font-size="14.00">b</text>
</g>
<!-- 2_7&#45;&gt;2_5 -->
<g id="edge20" class="edge">
<title>2_7&#45;&gt;2_5</title>
<path fill="none" stroke="black" d="M703.14,-163.61C723.35,-153.82 755.51,-138.25 779.28,-126.75"/>
<polygon fill="black" stroke="black" points="781.09,-129.75 788.57,-122.25 778.04,-123.45 781.09,-129.75"/>
<text text-anchor="middle" x="744.5" y="-148.67" font-family="Times,serif" font-size="14.00">a</text>
</g>
<!-- 2_7&#45;&gt;2_7 -->
<g id="edge21" class="edge">
<title>2_7&#45;&gt;2_7</title>
<path fill="none" stroke="black" d="M675.21,-193.77C668.74,-220.64 671.34,-252.87 683,-252.87 693.25,-252.87 696.49,-227.98 692.74,-203.7"/>
<polygon fill="black" stroke="black" points="696.15,-202.91 690.79,-193.77 689.28,-204.25 696.15,-202.91"/>
<text text-anchor="middle" x="683" y="-256.67" font-family="Times,serif" font-size="14.00">b</text>
</g>
</g>
</svg>

